<?xml version="1.0" standalone="no"?>
<!DOCTYPE svg PUBLIC "-//W3C//DTD SVG 20010904//EN"
 "http://www.w3.org/TR/2001/REC-SVG-20010904/DTD/svg10.dtd">
<svg version="1.0" xmlns="http://www.w3.org/2000/svg"
 width="364.000000pt" height="364.000000pt" viewBox="0 0 364.000000 364.000000"
 preserveAspectRatio="xMidYMid meet">
<metadata>
Created by potrace 1.15, written by Peter Selinger 2001-2017
</metadata>
<g transform="translate(0.000000,364.000000) scale(0.100000,-0.100000)"
fill="#000000" stroke="none">
<path d="M290 1910 l0 -462 33 24 c17 14 157 118 310 233 223 167 275 211 265
220 -27 25 -580 436 -593 442 -13 4 -15 -57 -15 -457z"/>
<path d="M1069 2222 c-38 -19 -64 -43 -87 -77 -32 -48 -34 -54 -30 -126 5
-125 50 -166 235 -215 109 -29 135 -43 151 -80 28 -59 9 -124 -47 -161 -70
-47 -225 -24 -313 47 l-38 31 0 -71 c0 -38 1 -70 3 -70 1 0 35 -11 75 -25 83
-28 205 -34 274 -13 55 16 123 79 143 133 26 67 17 162 -18 209 -36 46 -68 63
-193 96 -121 33 -139 42 -159 80 -56 108 53 211 191 180 49 -11 139 -53 149
-70 16 -26 26 -5 23 53 l-3 62 -65 22 c-47 16 -89 22 -151 23 -76 0 -94 -4
-140 -28z"/>
<path d="M1965 2043 c-16 -8 -42 -27 -57 -41 l-28 -26 0 32 c0 31 -1 32 -45
32 l-45 0 0 -290 0 -290 45 0 45 0 0 220 0 220 41 30 c80 57 152 49 176 -20 8
-23 12 -109 12 -242 l1 -208 45 0 45 0 2 221 3 221 41 30 c58 42 112 47 150
15 l29 -25 3 -231 3 -231 50 0 51 0 -4 233 c-4 255 -9 277 -67 331 -45 43
-123 48 -183 13 -24 -14 -54 -37 -67 -51 l-24 -25 -21 32 c-41 61 -135 85
-201 50z"/>
<path d="M3027 2046 c-60 -22 -103 -62 -134 -123 -26 -53 -28 -68 -28 -168 0
-94 3 -118 23 -161 44 -98 121 -147 227 -147 138 1 220 80 244 235 21 129 -13
253 -87 320 -62 56 -160 74 -245 44z m151 -86 c64 -29 87 -85 87 -210 0 -77
-4 -103 -21 -135 -59 -114 -202 -115 -259 -2 -21 43 -25 64 -25 141 1 128 33
194 106 216 45 13 65 11 112 -10z"/>
<path d="M1550 1749 l0 -290 48 3 47 3 3 288 2 287 -50 0 -50 0 0 -291z"/>
<path d="M2660 1750 l0 -290 50 0 50 0 0 290 0 290 -50 0 -50 0 0 -290z"/>
</g>
</svg>
